<?xml version="1.0" encoding="UTF-8" standalone="no"?>
<svg xmlns="http://www.w3.org/2000/svg" width="108" height="108" viewBox="0 0 108 108">
  <path fill="#1F88E5" d="M54,18c-19.88,0 -36,16.12 -36,36s16.12,36 36,36s36,-16.12 36,-36S73.88,18 54,18zM54,84c-16.57,0 -30,-13.43 -30,-30s13.43,-30 30,-30s30,13.43 30,30S70.57,84 54,84z"/>
  <path fill="#1F88E5" d="M57,36h-6v21l15,9l3,-4.5l-12,-7.5V36z"/>
  <circle fill="#1F88E5" cx="54" cy="54" r="3"/>
  <path fill="#1F88E5" d="M44,12h20v4h-20z"/>
  <path fill="#1F88E5" d="M42,12c0,-3.31 2.69,-6 6,-6h12c3.31,0 6,2.69 6,6v2h-4v-2c0,-1.1 -0.9,-2 -2,-2h-12c-1.1,0 -2,0.9 -2,2v2h-4v-2z"/>
</svg>
